<svg xmlns="http://www.w3.org/2000/svg" xmlns:xlink="http://www.w3.org/1999/xlink" width="334.826" height="128.613" viewBox="0 0 334.826 128.613">
  <defs>
    <linearGradient id="linear-gradient" x1="0.5" x2="0.5" y2="1" gradientUnits="objectBoundingBox">
      <stop offset="0" stop-color="#2b2b2a"/>
      <stop offset="1" stop-color="#1c1a19"/>
    </linearGradient>
  </defs>
  <g id="Group_38" data-name="Group 38" transform="translate(-4793.672 -1983.131)" opacity="0.8">
    <g id="Group_22" data-name="Group 22" transform="translate(4793.672 1983.131)">
      <path id="Path_7" data-name="Path 7" d="M74.921,71.7c-3.9-1.846-7.624-.71-11.375.565-1.991.673-3.787,2.585-6.734,1.093.391-4.178,2.976-6.415,6.488-8.008,2.52-1.144,4.026-3.07,3.287-5.879-.71-2.708-2.795-3.736-5.6-3.9-2.976-.167-6.089,1.093-9.145-.608,0-3.193-.043-6.278.007-9.362.087-5.068,1.4-6.01,6.509-4.938,2.389.5,4.591,1.9,7.183,1.463,2.636-.449,4.9-1.4,4.916-4.511.014-3.287-2.064-4.8-5.134-4.866-1.4-.029-2.831.688-4.236.644-2.129-.065-4.192,2.129-6.567.1,1.629-7.2,8.624-5.148,13.308-7.117a18.519,18.519,0,0,0-6.01-8.218c-3.432-2.715-6.437-5.865-7.972-10.006C51.86,2.807,47.682.924,42.078-.01c-2.368,8.167-1.209,16.371-1.086,24.372-4.04,1.434-7.813,2.491-11.331,4.084-3.693,1.673-7.907,1.89-11.585,4.163C21,39.5,27.568,40.392,33.7,42.087c-3.577,5.4-7.624,8.92-12.982,11.129-6.777,2.795-7.161,5.517-2.1,11.476,4.576-.434,6.965-3.982,9.8-6.886,3.374-3.454,5.619-7.943,10.325-11.31.2,6.227,2.223,10.89,9.022,13.728-9.8,2.071-17.631,6.625-26.718,6.553-2.187,2.476-2.216,4.294,1.419,5.286,6.821,1.861,13.4,1.542,19.731-1.8,2.476-1.311,4.467-3.541,7.407-4.076,1.839,9.152,1.68,9.449-6.422,11.788a103.221,103.221,0,0,0-18.876,7.436c-5.966,3.1-12.36,4.3-18.992,4.605-1.788.087-3.722-.5-5.307.847.927,6.444,3.678,8.464,9.434,6.415,7.545-2.686,14.923-5.836,22.453-8.551,6.444-2.331,12.772-5.213,20.006-5.6,1.238,5.611-.2,10.615-1.325,15.553-1.571,6.936-5.619,9.536-12.714,8.421-3-.471-5.945-1.238-9.377-.326,2.093,5.213,7.125,5.575,10.962,7.219,9.282,3.968,14.228,1.209,16.545-8.5.529-2.208.739-4.467,1.18-6.661,1.209-6.039.405-12.237,1.267-17.848,2.071-1.694,3.866-1.282,5.742-1.05a26.38,26.38,0,0,0,9.818-.3c1.8-.456,4.026-.34,4.33-2.614.333-2.476-1.144-4.257-3.41-5.329" transform="translate(-0.01 0.01)" fill="url(#linear-gradient)"/>
      <path id="Path_8" data-name="Path 8" d="M167.161,48.831c-4.656-1.984-9.167-1.535-13.706.434-9.768,4.228-19.376,8.877-29.65,11.86-1.6.463-3.2.825-3.714,3,1.021,1.723,2.331,3.36,2.52,5.836.818,10.636,1.477,21.244.717,31.909a16.419,16.419,0,0,0,.326,4.909c1.028,4.257,3.106,5.329,8.334,4.467.847-3.57-2.578-6.994-.275-11.223,8.377-.275,14.582-5.706,21.114-11.65a7.1,7.1,0,0,0,2.237,5.9l4.866-10.144L165.561,70.1c-.377-2.36-1.984-3.389-4.438-4.214-2.2,4.677-1.7,10.115-4.967,14.785-1.368-4.4-1.484-8.595-4.048-12.012-1.94-2.578,2.187-3.461,2.078-5.763-2.44-1.4-6.031,1.086-7.61-2.99-2.541,6.632-8.942,5.771-13.4,8.24-.058,5.068,5.329,1.723,6.727,4.46-5.937,2.512-6.488,2.3-9.217-2.715-1.05-1.933-2.433-3.685-3.823-5.764,9.507-3.823,18.71-7.624,28.007-11.2a10.469,10.469,0,0,1,7.175-.659c4.134,1.289,6.386,3.483,5.778,8.023-.442,3.251-.767,6.517-1.144,9.782.167,4.627.76,9.275-.854,13.793-.579,6.4.442,12.939-1.035,19.557-5.394-.471-6.459-6.14-10.665-7.175-5.872,1.028-10.289,5.887-16.6,6.068-2.151.065-2.353,2.426-1.332,4.656,3.968.405,7.957.637,12.012-.565,8.544-2.527,10.463-1.745,15.546,6.031,1.484,2.274,3.338,3.932,6.039,3.121,2.368-.71,2.317-3.106,2.245-5.213-.579-16.885.9-33.69,2.042-50.51.377-5.532-1.759-8.819-6.9-11.013M140.994,77.989q.529,3.91-4.156,4.134A10.506,10.506,0,0,1,140.994,77.989Zm-8.233,1.339c1.209,1.933.152,4.026.391,6.017.434,3.7,2.31,4.323,5.865,3.432,9.311-2.331,9.97-8.957,8.826-16.936,5.785,6.582,5.445,10.991-.536,15.77-4.569,3.649-9.847,5.807-15.357,7.53-4.938-14.662-4.9-15.444.811-15.806" transform="translate(-33.145 -13.113)" fill="url(#linear-gradient)"/>
      <path id="Path_9" data-name="Path 9" d="M175,104.976c-3.874-7.443,1.542-17.928,3.244-24.886,0-.022-1.926,3.932-1.919,3.91l-3.135,9.116-4.815,9.456c-.138.261-.326.579-.051.688C170.057,103.955,172.381,106.3,175,104.976Z" transform="translate(-46.417 -22.093)" fill="url(#linear-gradient)"/>
      <path id="Path_10" data-name="Path 10" d="M416.9,92.792c6.987-2.447,14.22-.087,21.512.181-1.731-7.552-2.513-8.052-9-7.371-4.055.427-8.138.985-12.642.456,1.057-3.1-.246-7.19,4.916-7.262.84-.015,1.4-.963,1.448-1.788.253-4.837,3.758-7.957,6.748-11.8-11.368-7.545-21.6-.941-32,.384-.217,9.123-3.236,16.726-6.676,24.256-3.468,7.588-9.977,12.961-15.828,20.36,10.919-1.774,16.378-7.617,19.521-16.7,5.351,5,10-.478,15.35.427.355,2.418.405,4.627-.811,6.263-2.694,3.628-8.023,1.166-10.977,4.286.391,5.076,3.077,8.913,5.937,12.743,1.789,2.4,3.577,3.251,6.755,2.809,3.968-.55,7.914-2.3,12.164-.782,1.629.579,2.838-.8,3.229-2.809a22.169,22.169,0,0,1,7.429-12.418c-5.351-4.286-11.448-3.975-17.138-4.562A11.339,11.339,0,0,1,416.9,92.792Zm-1.267-26.913c1.253.2,2.36.76,2.447,2.274.13,2.36-.138,4.728-2.657,5.648-3.381,1.245-6.755,2.817-11,2.462.181-7.689,4.489-11.484,11.2-10.383m-17.913,24.43c3.106-9.253,4.583-10.311,12.852-9.782,1.441,2.006.652,4.229.579,6.806C407.087,88.969,402.764,89.475,397.717,90.308Zm12.447,24.27c-2.585-.76-2.94-3.229-3.49-5.336-.63-2.411,1.282-3.106,3.041-3.8,5.329-2.085,9.608-1.948,13.895.463-1.122,6.574-7.183,10.521-13.453,8.674" transform="translate(-103.59 -17.004)" fill="url(#linear-gradient)"/>
      <path id="Path_11" data-name="Path 11" d="M241.181,69a15.037,15.037,0,0,1,4.026-12.338c3.483-3.932,1.238-8.37-3.975-8.529-7.052-.21-12.49,4.308-18.413,7.306a2.891,2.891,0,0,0-1.086,2.1c-.586,9.225.731,18.2,3.15,27.449-1.846,1.18-4.076,2.954-6.987,3.6-3-2.976-3.816-7.559-8.24-9.253,3.562,5.235,1.253,12.4,6.1,16.957-2.976,4.851-8.725,4.424-13.149,6.553,2.672,5.546,3.15,5.7,10.991,3.685.9,1.521.536,3.2.543,4.815.015,2.317-.2,5.047,2.954,5.09.188,0-2.353,1.47.543-.022s3.693-7.6,3.838-6.495-3.613-3.323-3.613-3.323c-.84-2.8.4-4.315,4.076-7.226,1.687,1.868.594,3.533-.369,5.177-1.043,1.781.029,3.584-.1,5.365,1.644,1.846,2.252,5.141,6.227,4.192a48.333,48.333,0,0,1,3.07-17.377,10.308,10.308,0,0,0-1.383-11c8.2-2.657,12.816-7.617,11.788-16.718m-20.918,42.444c-.543-.92-1-1.745-1.383-2.476C219.249,109.718,219.712,110.537,220.255,111.456Zm-2-15.756a2.329,2.329,0,0,1,3.36.087C220.415,96.989,219.35,96.6,218.257,95.7Zm17.269-23.735c-.891-5.409-6.249-1.072-8.537-4.069,1.354-3.8,7.407-1.267,8.327-5.865-2.6-3.432-5.822-.746-8.739-.6q0-4.149,9.5-6.85a58.824,58.824,0,0,1-1.108,22.924c-.652,2.788-3.772,2.563-6.1,4.851Q227.583,74.768,235.526,71.966Z" transform="translate(-55.916 -13.274)" fill="url(#linear-gradient)"/>
      <path id="Path_12" data-name="Path 12" d="M364.451,111.614c-5.394-2.505-10.9-4.851-15.365-8.935-1.028-.941-2.983-2.035-2.332-3.331,3.092-6.155,1.535-14.662,9.377-18.442,3.041-1.47,4.887-3.664,2.527-7.248-6.7.4-11.73,5.807-19.006,6,3.627-7.552,6.871-14.3,10.318-21.483-2.636-.608-4.467-2.751-7.414-2.643-1.767,12.924-9.181,23.307-13.895,34.414,1.209,2.3,2.563-.847,4.207,1.028-3.99,6.357,4.359,6.024,5.85,9.478-2.2,8.515-11.744,8.653-16.747,14.655,9.659.587,16.364-2.722,20.549-10.636,5.054,2.751,8.819,5.213,10.709,9.659.5,1.18,1.159,2.484,2.389,2.578,5.517.442,11.056.659,17.66,1.021C370.417,114.054,367.354,112.961,364.451,111.614ZM341.7,95.533c-3.548-1.216-5.213-4.648-8.3-6.647,1.122-1.73,2.208-3.418,3.418-5.286,2.759.463,4.062,3.693,7.537,2.375C343.808,90.4,343.865,93.281,341.7,95.533Z" transform="translate(-88.852 -15.314)" fill="url(#linear-gradient)"/>
      <path id="Path_13" data-name="Path 13" d="M317.391,108.758c1.332-4.9,4.207-9.123,6.393-13.475-2.9-3.135-6.712-2.527-9.847-3.526-.92-4.076,1.173-6.039,4.569-6.712,4.149-.818,5.141-3.294,4.67-6.958-2.382-1.245-4.619,1.687-6.625-.29.514-5.155,2.534-9.854,4.424-14.633-2.375-1.274-4.236-2.983-7.328-2.954-.449,3.418-.992,6.828-1.318,10.26-.876,9.174-1.093,9.442-10.007,10.665-1.2.167-2.491.094-3.627,1.47-.232,2.455.709,4.793,2.092,7.089,2.636-.615,5-2.339,7.574-.688-.152,7.219-7.125,4.931-10.412,7.8A22.128,22.128,0,0,0,305.7,112.06c2.5-1.412,5.38-1.347,8.233-1.434,1.484-.043,2.976-.072,3.468-1.861m-7.472-4.12c-2.006.55-3.548.6-4.294-1.81-.666-2.136-.116-3.707,2.013-4.344,2.078-.623,4.185-1.817,7.219-.224-.775,3-1.665,5.488-4.931,6.379" transform="translate(-82.224 -16.607)" fill="url(#linear-gradient)"/>
      <path id="Path_14" data-name="Path 14" d="M269.443,76.612a5,5,0,0,0-4.62-4.974c-3.309-.355-3.5,2.382-3.512,4.562a13.706,13.706,0,0,1-6.618,11.831c-3.816,2.534-4.634,6.176-4.127,10.209a19.7,19.7,0,0,1-2.085,12.483,7.463,7.463,0,0,0-.905,2.252c-.478,2.744,1.093,4.808,2.809,6.517,1.253,1.245,3.121.891,4.576-.109,2.3-1.586.963-3.6.6-5.561-.319-1.731-.934-3.729,1.383-4.866,2.679.514,2.853,2.73,2.846,4.714-.007,3.012,1.4,4.562,4.214,5.039,1.781.3,3.512-.1,4.149-1.846.927-2.527,1.318-5.119-1.035-7.364-1.535-1.47-3.8-2.455-4.026-5.09,2.809-.963,6.169-2.121,5.4-5.626-.934-4.243.4-10.151-6.727-11.165,2.042-1.875,3.7-3.374,5.329-4.9a7.3,7.3,0,0,0,2.332-6.1m-5.307,19.245c-2.838,1.419-4.829,4.489-9.275,4.518C256.468,94.359,260.4,95.373,264.122,95.858Z" transform="translate(-68.3 -19.752)" fill="url(#linear-gradient)"/>
      <path id="Path_15" data-name="Path 15" d="M169.18,58.036c1.455,2.5,3.584,3.707,6.973,3.664C175.66,55.748,174.357,55.126,169.18,58.036Z" transform="translate(-46.691 -15.541)" fill="url(#linear-gradient)"/>
    </g>
    <text id="Kwoh-ting_Li_s_Residence" data-name="Kwoh-ting Li’s Residence" transform="translate(4869.784 2106.745)" fill="#333231" font-size="19" font-family="AveriaSerifLibre-Bold, Averia Serif Libre" font-weight="700" letter-spacing="-0.009em"><tspan x="0" y="0">Kwoh-ting Li’s Residence</tspan></text>
  </g>
</svg>
